<svg xmlns="http://www.w3.org/2000/svg" viewBox="0 0 220 220">
  <rect width="220" height="220" fill="white"/>
  <g transform="translate(20,40)">
    <path d="M20 70 Q90 10 180 70 Q90 130 20 70 Z"
      fill="none" stroke="#0F2A44" stroke-width="10"
      stroke-linecap="round" stroke-linejoin="round"/>
    <polygon points="90,45 110,55 110,75 90,85 70,75 70,55" fill="#2D9A95"/>
    <rect x="40" y="65" width="10" height="30" fill="#9AA3AA"/>
    <rect x="55" y="55" width="10" height="40" fill="#9AA3AA"/>
    <rect x="115" y="70" width="10" height="25" fill="#2D9A95"/>
    <rect x="130" y="55" width="10" height="40" fill="#2D9A95"/>
    <rect x="145" y="40" width="10" height="55" fill="#2D9A95"/>
    <g transform="translate(175,70)">
      <line x1="0" y1="15" x2="0" y2="35" stroke="#2D9A95" stroke-width="6" stroke-linecap="round"/>
      <line x1="12" y1="5" x2="12" y2="45" stroke="#2D9A95" stroke-width="6" stroke-linecap="round"/>
      <line x1="24" y1="15" x2="24" y2="35" stroke="#2D9A95" stroke-width="6" stroke-linecap="round"/>
    </g>
  </g>
</svg>
