<svg width="860" height="220" viewBox="0 0 860 220" xmlns="http://www.w3.org/2000/svg" role="img" aria-label="ENGAGE Analytics Logo">
  <!-- Icon Group -->
  <g transform="translate(20, 40)">
    <!-- Eye Outline -->
    <path d="M20 70 Q90 10 180 70 Q90 130 20 70 Z" fill="none" stroke="#0F2A44" stroke-width="10" stroke-linecap="round" stroke-linejoin="round" />
    <!-- Hexagonal Pupil -->
    <polygon points="90,45 110,55 110,75 90,85 70,75 70,55" fill="#2D9A95" />
    <!-- Passive Bars (Left - Grey) -->
    <rect x="40" y="65" width="10" height="30" fill="#9AA3AA" />
    <rect x="55" y="55" width="10" height="40" fill="#9AA3AA" />
    <!-- Active Bars (Right - Teal) -->
    <rect x="115" y="70" width="10" height="25" fill="#2D9A95" />
    <rect x="130" y="55" width="10" height="40" fill="#2D9A95" />
    <rect x="145" y="40" width="10" height="55" fill="#2D9A95" />
    <!-- Audio Waveform -->
    <g transform="translate(175, 70)">
      <line x1="0" y1="15" x2="0" y2="35" stroke="#2D9A95" stroke-width="6" stroke-linecap="round" />
      <line x1="12" y1="5" x2="12" y2="45" stroke="#2D9A95" stroke-width="6" stroke-linecap="round" />
      <line x1="24" y1="15" x2="24" y2="35" stroke="#2D9A95" stroke-width="6" stroke-linecap="round" />
    </g>
  </g>

  <!-- Text Group -->
  <g transform="translate(260, 78)">
    <!-- ENGAGE -->
    <text x="0" y="0" fill="#0F2A44" font-size="56" font-weight="700" font-family="Inter, Montserrat, Arial, sans-serif" letter-spacing="1">ENGAGE</text>
    <!-- Analytics -->
    <text x="0" y="54" fill="#2D9A95" font-size="40" font-weight="500" font-family="Inter, Montserrat, Arial, sans-serif" letter-spacing="6.2">Analytics</text>
  </g>
</svg>